<svg xmlns="http://www.w3.org/2000/svg" width="102.3" height="95.1" fill="#0a0a0a">
  <path d="M52.7 14l2.5-.6s-3.9-8.6-5.5-13a12.4 12.4 0 0 1 3.9.3l5.4 9.7 9.1-5A5 5 0 0 1 70.6 7l-9.2 8.2 2.7 7.7s6.5-9.2 9.8-13.6a5.2 5.2 0 0 1 2.8 2c-1.3 2.4-3.3 4.6-4.3 7 3.9.2 7.9.1 11.7.4a12.1 12.1 0 0 1 2.6 4l-9.8.7-4.7 8.1 6.3-1.4 10.1-4a9.7 9.7 0 0 1 1.8 4L79.8 34l-9.4 2a29.4 29.4 0 0 0-3.2 5c8.4-1.6 16.6-4.3 25.1-6A46.7 46.7 0 0 1 87 73c-22.9 5.8-47.3-1.5-71 1.6l-6.9.8A43.2 43.2 0 0 1 .5 54.5 48.6 48.6 0 0 1 3.3 30l11.1-1L8 21.1c.2-1.3 1.4-2.3 2.2-3.4 3.4 3.5 9.6 10.7 9.6 10.7l3.6-.3-11-12.6A16.8 16.8 0 0 1 17 11l9.3 1.7s-.1-5 .1-7.8a20.5 20.5 0 0 1 6.2-2.4c1.9 3.3 3.2 7 5.3 10.2 2.4-3.9 4.5-8.2 6.6-12.4a.9.9 0 0 1 1 0zm-6.9-4.6l-5 9.4 2.9 9.7 4.3-3 1.2-8c-1.1-2.8-2.2-5.6-3.4-8zm-14.5.6v4.7l2.3.5a26.6 26.6 0 0 0-2.3-5.2zm-12.1 5.6v.3c2.5 2.5 7.4 8 7.4 8v-6.2zm37.6 2.2l-2.2 1.4.5 1.6 2-1.8zm-25.2 2l.3 8.7 3.3-7.6zm40.3 3.7l-3.1.4-4.9 7.8h3.2zm-19.3 5.7l.4 9 6.7-8.6a4 4 0 0 0 .8-1.8l-1.3-4zM38.1 28L36 32.2l4 4.6a80.6 80.6 0 0 0-1.9-8.8zm9.4 3.8l-2.6 1.3.2 3.6 2.1.7zm-26.8.5L17.1 38l7.3 2.8 6.1-5.3-2.3-2.5zM5.6 33.4l6.4 3 2-3.3zm54.9 4.1l-3.4 5.6 3.9-.4 3.5-5.7zm-25.9 1.2L23 48.2l-5.6.2a34.6 34.6 0 0 0 3-3.9 55 55 0 0 0-6.3-2.5L10 47.5c-1.3.2-2.8 0-3.8.5-.3 4.6.7 8.8 1.5 13 .4 1.1.7 3 2.3 2.8 11.4 0 22.2 1.8 33.4 3V49.3a23.6 23.6 0 0 0-2.8-4.2l-5.2 3.1-9.6.1c-.1-.2 7.9-4.6 11.5-6.9-.9-1-1.5-2.2-2.7-2.8zM6.8 39c-.7 1.5-.6 3.8-.5 5.4.9-1.5 3.1-4.4 3.1-4.4zm81.6 2.3l-4.1 1.2c1.1 2.2 3.6 6.5 3.6 6.5l-4.9.2-4.4-5.3-7.1 1.6 2 3.7-3.6.4-2.8-3.6L52 50.4l-.3.5c.1 5.6.5 11 1.1 16.4l.5 1.2c9.4 1.8 18.9 2.2 28.9 2.8l.9-.4c2.7-3.9 4.2-8.2 5.7-12.6a26.3 26.3 0 0 0-.4-17z" id="path16"/>
  <path d="M85.5 75.7a46.8 46.8 0 0 1-10.7 10.6c-21.6-.3-41.5-6.2-62.5-7.2a4.3 4.3 0 0 1-1.6-2.2c16.4-2.9 33.1-1.2 49.4-.2A114.5 114.5 0 0 0 85.7 75z" id="path24"/>
  <path d="M53.2 86c6.3.7 12.6 1.2 18.8 2a46.8 46.8 0 0 1-47.3 1.3A44.1 44.1 0 0 1 14.1 81c.2-.5.9 0 1.4-.3l9 .8z" id="path26"/>
</svg>